<?xml version="1.0" encoding="utf-8"?>
<!-- Generator: Adobe Illustrator 17.0.0, SVG Export Plug-In . SVG Version: 6.00 Build 0)  -->
<!DOCTYPE svg PUBLIC "-//W3C//DTD SVG 1.1//EN" "http://www.w3.org/Graphics/SVG/1.1/DTD/svg11.dtd">
<svg version="1.1"
	 id="svg2" xmlns:svg="http://www.w3.org/2000/svg" xmlns:cc="http://creativecommons.org/ns#" xmlns:inkscape="http://www.inkscape.org/namespaces/inkscape" xmlns:sodipodi="http://sodipodi.sourceforge.net/DTD/sodipodi-0.dtd" xmlns:rdf="http://www.w3.org/1999/02/22-rdf-syntax-ns#" xmlns:dc="http://purl.org/dc/elements/1.1/" inkscape:version="0.48.2 r9819" sodipodi:docname="New document 1"
	 xmlns="http://www.w3.org/2000/svg" xmlns:xlink="http://www.w3.org/1999/xlink" x="0px" y="0px" width="1024px" height="1024px"
	 viewBox="0 0 1024 1024" enable-background="new 0 0 1024 1024" xml:space="preserve">
<sodipodi:namedview  showgrid="false" inkscape:cy="520" borderopacity="1.0" bordercolor="#666666" inkscape:zoom="0.35" pagecolor="#ffffff" id="base" inkscape:cx="-227.85714" inkscape:pageopacity="0.0" inkscape:document-units="px" inkscape:current-layer="layer1" inkscape:window-width="1459" inkscape:pageshadow="2" inkscape:window-maximized="0" inkscape:window-x="1920" inkscape:window-y="0" inkscape:window-height="880">
	</sodipodi:namedview>
<g>
	<path d="M904.264,271.313c-14.739,10.528-44.217,90.54-44.217,117.913c0,27.373-44.33,136.643-94.751,172.658
		c-58.956,42.112-33.689,94.751-54.745,124.23c-15.481,21.673-61.062,48.429-86.329,61.062
		c-25.267,12.633-105.279,14.739-138.969,8.422c-33.112-6.209-109.491-29.478-147.391-82.118
		c-12.303-17.088-27.373-103.174-69.484-126.335c-43.425-23.884-103.174-138.969-105.279-206.348s-40.006-96.857-31.584-71.59
		c8.422,25.267,8.422,181.081,25.267,212.664c16.845,31.584-8.422,65.273,16.845,69.484c25.267,4.211,29.478,54.745,44.217,88.435
		c8.811,20.14,10.528,92.646,21.056,92.646c36.348,0,61.062,71.59,61.062,71.59s6.317,48.429,56.851,48.429
		s37.901,37.901,92.646,21.056c54.745-16.845,58.956-2.106,71.59,6.317c12.634,8.422,25.267,71.59,46.323,6.317
		c7.891-24.461,61.062-10.528,103.174-8.422c42.112,2.106,42.112-50.534,61.062-58.956c18.95-8.422,14.739,69.484,50.534-33.689
		c35.795-103.174,67.379-71.59,61.062-109.491s0-54.745,16.845-98.963c16.845-44.217,8.422-77.907,27.373-98.963
		c18.95-21.056,23.161-42.112,16.845-73.696C900.114,383.215,918.393,261.221,904.264,271.313z"/>
	<path d="M356.811,492.4c8.987-53.92,83.069-70.907,128.441-44.217c35.795,21.056,32.835,23.171,82.118-14.739
		c27.373-21.056,101.068,6.317,126.335,56.851c11.985,23.97,46.173,34.562,61.062,31.584c10.528-2.106-33.689-46.323-69.484-92.646
		c-15.025-19.444-36.572-14.309-56.851-27.373c-41.158-26.514-71.93-11.186-86.329,2.106c-27.373,25.267-27.373,14.739-40.006,2.106
		c-26.841-26.841-82.118-2.106-124.23,18.95c-42.112,21.056-59.646,89.11-73.696,120.018
		C293.643,568.201,354.705,505.033,356.811,492.4z"/>
</g>
</svg>
